<?xml version="1.0" encoding="utf-8"?>
<!-- Generator: Adobe Illustrator 21.1.0, SVG Export Plug-In . SVG Version: 6.00 Build 0)  -->
<svg version="1.1" id="Capa_1" xmlns="http://www.w3.org/2000/svg" xmlns:xlink="http://www.w3.org/1999/xlink" x="0px" y="0px"
	 viewBox="0 0 573.1 253.9" style="enable-background:new 0 0 573.1 253.9;" xml:space="preserve">
<style type="text/css">
	.st0{fill:#FFFFFF;}
</style>
<title>isologotipo_b_</title>
<path class="st0" d="M197.3,104.6v7.9c-1.4,0.2-2.8,0.4-4.1,0.4c-3.2,0-5.6-0.7-7.1-2.1c-1.6-1.4-2.4-3.5-2.4-6.4
	c0-2.8,0.8-5,2.4-6.4s3.9-2.2,7-2.2c1.3,0,2.5,0.1,3.7,0.4v3c-1.1-0.3-2.3-0.4-3.4-0.4c-1.1,0-2.3,0.2-3.4,0.6
	c-0.8,0.3-1.5,1-1.9,1.8c-0.5,1-0.7,2.1-0.6,3.2c-0.1,1.5,0.3,3,1.3,4.1c1.1,1,2.6,1.4,4.1,1.3h1v-5.2L197.3,104.6z"/>
<path class="st0" d="M203.4,111.9c-1.2-0.6-2.1-1.6-2.7-2.8c-1.3-3-1.3-6.4,0-9.5c0.6-1.2,1.5-2.2,2.7-2.8c2.6-1.3,5.7-1.3,8.4,0
	c1.2,0.6,2.1,1.6,2.7,2.8c1.3,3,1.3,6.4,0,9.4c-0.6,1.2-1.5,2.2-2.7,2.8C209.1,113.2,206,113.2,203.4,111.9 M210.6,108.6
	c0.8-1.2,1.1-2.7,1-4.2c0.1-1.5-0.2-3-1.1-4.3c-0.7-0.9-1.8-1.4-3-1.3c-1.2-0.1-2.3,0.4-3,1.3c-0.8,1.2-1.2,2.7-1.1,4.2
	c-0.1,1.5,0.2,3,1,4.3c1.6,1.7,4.2,1.8,5.9,0.2C210.4,108.7,210.5,108.6,210.6,108.6"/>
<path class="st0" d="M229.9,105.4c0.6,0.7,0.9,1.7,0.8,2.6c0,1-0.3,1.9-0.8,2.7c-0.7,0.8-1.6,1.4-2.6,1.6c-1.6,0.4-3.2,0.6-4.8,0.6
	c-0.7,0-1.5,0-2.3-0.1c-0.9-0.1-1.6-0.1-2.3-0.2V96.4c0.9-0.2,1.7-0.3,2.6-0.4c0.9-0.1,1.8-0.2,2.7-0.2c1.9-0.1,3.7,0.3,5.4,1.2
	c1.1,0.8,1.8,2.1,1.7,3.5c0,0.8-0.2,1.6-0.7,2.3c-0.5,0.7-1.2,1.1-2,1.3C228.4,104.3,229.2,104.7,229.9,105.4 M221.3,98.7v4.1h2.4
	c0.8,0.1,1.6-0.1,2.3-0.5c0.5-0.4,0.7-1,0.7-1.6c0-0.4-0.1-0.9-0.3-1.2c-0.2-0.3-0.6-0.6-1-0.7c-0.6-0.2-1.2-0.2-1.9-0.2
	C222.8,98.5,222.1,98.6,221.3,98.7 M225.7,109.9c0.5-0.1,0.9-0.4,1.2-0.8c0.3-0.4,0.4-0.8,0.4-1.3c0.1-0.7-0.2-1.3-0.8-1.8
	c-0.7-0.4-1.6-0.6-2.4-0.6h-2.7v4.5c0.7,0.1,1.4,0.1,2.1,0.1C224.2,110.2,225,110.1,225.7,109.9"/>
<rect x="232.8" y="96" class="st0" width="3.7" height="16.6"/>
<polygon class="st0" points="243.1,109.7 251.3,109.7 251.3,112.6 239.4,112.6 239.4,96 251.1,96 251.1,99 243.1,99 243.1,102.7 
	250,102.7 250,105.6 243.1,105.6 "/>
<path class="st0" d="M263.4,112.6l-4.3-6.1h-0.2c-0.5,0-1.1,0-1.7-0.1v6.2h-3.6V96.4c0.8-0.2,1.6-0.3,2.5-0.4
	c0.9-0.1,1.8-0.2,2.7-0.2c1.9-0.1,3.8,0.3,5.4,1.3c1.2,0.9,1.9,2.4,1.8,4c0,1.1-0.3,2.1-0.9,3c-0.6,0.8-1.5,1.5-2.5,1.8l4.7,6.7
	L263.4,112.6z M257.2,103.7c0.6,0.1,1.2,0.1,1.8,0.1c0.9,0.1,1.9-0.1,2.7-0.6c0.6-0.5,0.9-1.2,0.9-2c0.1-0.8-0.2-1.5-0.8-2
	c-0.8-0.5-1.7-0.7-2.6-0.6c-0.7,0-1.3,0.1-2,0.2L257.2,103.7z"/>
<polygon class="st0" points="280,96 283.4,96 283.4,112.6 279.7,112.6 272.5,101.5 272.5,112.6 269,112.6 269,96 272.7,96 
	280,107.2 "/>
<path class="st0" d="M289.5,111.9c-1.2-0.6-2.1-1.6-2.7-2.8c-1.3-3-1.3-6.4,0-9.5c0.6-1.2,1.5-2.2,2.7-2.8c2.6-1.3,5.7-1.3,8.4,0
	c1.2,0.6,2.1,1.6,2.7,2.8c1.3,3,1.3,6.4,0,9.4c-0.6,1.2-1.5,2.2-2.7,2.8c-1.3,0.7-2.7,1-4.2,0.9
	C292.2,112.9,290.8,112.6,289.5,111.9 M296.7,108.6c0.8-1.2,1.1-2.7,1-4.2c0.1-1.5-0.2-3-1-4.3c-0.7-0.9-1.8-1.4-3-1.3
	c-1.2-0.1-2.3,0.4-3,1.3c-0.8,1.2-1.2,2.7-1,4.2c-0.1,1.5,0.2,3,1,4.3c1.6,1.7,4.2,1.8,5.9,0.2C296.6,108.7,296.6,108.6,296.7,108.6
	"/>
<path class="st0" d="M309.6,112.5V96.4c0.8-0.2,1.7-0.3,2.6-0.4c0.9-0.1,1.8-0.1,2.7-0.1c3.1,0,5.3,0.7,6.9,2.1
	c1.5,1.4,2.3,3.5,2.3,6.4c0.1,1.7-0.3,3.3-1.1,4.8c-0.7,1.3-1.9,2.2-3.3,2.8c-1.8,0.6-3.6,0.9-5.5,0.9
	C312.7,112.8,311.1,112.7,309.6,112.5 M318.1,109.3c0.8-0.4,1.4-1,1.7-1.8c0.4-1,0.6-2.1,0.6-3.2c0-1.1-0.2-2.2-0.6-3.2
	c-0.3-0.8-0.9-1.4-1.7-1.8c-0.9-0.4-1.9-0.6-2.9-0.6c-0.6,0-1.3,0.1-1.9,0.2v10.8c0.6,0.1,1.2,0.1,1.8,0.1
	C316.1,109.9,317.1,109.7,318.1,109.3"/>
<polygon class="st0" points="330.1,109.7 338.3,109.7 338.3,112.6 326.5,112.6 326.5,96 338.2,96 338.2,99 330.1,99 330.1,102.7 
	337,102.7 337,105.6 330.1,105.6 "/>
<polygon class="st0" points="346.3,112.6 346.3,96 349.9,96 349.9,109.6 357.6,109.6 357.6,112.6 "/>
<path class="st0" d="M370.3,112.6l-1.3-4.4h-6.2l-1.4,4.4h-3.6l5.3-16.6h5.4l5.4,16.6L370.3,112.6z M363.7,105.3h4.4l-2.2-7.1
	L363.7,105.3z"/>
<path class="st0" d="M381.2,96.3c1.6-0.3,3.3-0.5,5-0.5c2.5,0,4.4,0.5,5.6,1.5c1.3,1.1,2,2.8,1.9,4.5c0.1,1.7-0.6,3.3-1.8,4.5
	c-1.6,1.1-3.5,1.7-5.4,1.5h-1.6v4.9h-3.7L381.2,96.3z M389.3,104.3c0.6-0.7,0.9-1.6,0.9-2.5c0.1-0.9-0.2-1.8-0.9-2.5
	c-0.8-0.6-1.7-0.9-2.7-0.8c-0.6,0-1.1,0-1.7,0.1v6.3c0.5,0.1,1.1,0.1,1.6,0.1C387.5,105.2,388.5,104.9,389.3,104.3"/>
<path class="st0" d="M405.9,112.6l-4.3-6.1h-0.2c-0.5,0-1.1,0-1.7-0.1v6.2h-3.6V96.4c0.8-0.2,1.6-0.3,2.5-0.4
	c0.9-0.1,1.8-0.2,2.7-0.2c1.9-0.1,3.8,0.3,5.4,1.3c1.2,0.9,1.9,2.4,1.8,4c0,1.1-0.3,2.1-0.9,3c-0.6,0.8-1.5,1.5-2.5,1.8l4.7,6.7
	L405.9,112.6z M399.7,103.7c0.6,0.1,1.2,0.1,1.8,0.1c0.9,0.1,1.9-0.1,2.7-0.6c0.6-0.5,0.9-1.2,0.9-2c0.1-0.8-0.2-1.5-0.8-2
	c-0.8-0.5-1.7-0.7-2.6-0.6c-0.7,0-1.3,0.1-2,0.2L399.7,103.7z"/>
<path class="st0" d="M413.9,111.9c-1.2-0.6-2.1-1.6-2.7-2.8c-1.3-3-1.3-6.4,0-9.5c0.6-1.2,1.5-2.2,2.7-2.8c2.6-1.3,5.7-1.3,8.4,0
	c1.2,0.6,2.1,1.6,2.7,2.8c1.3,3,1.3,6.4,0,9.4c-0.6,1.2-1.5,2.2-2.7,2.8C419.6,113.2,416.5,113.2,413.9,111.9 M421.1,108.6
	c0.8-1.2,1.1-2.7,1-4.2c0.1-1.5-0.2-3-1-4.3c-0.7-0.9-1.8-1.4-3-1.3c-1.2-0.1-2.3,0.4-3,1.3c-0.8,1.2-1.2,2.7-1,4.2
	c-0.1,1.5,0.2,3,1,4.3c1.6,1.7,4.2,1.8,5.9,0.2C420.9,108.7,421,108.6,421.1,108.6"/>
<polygon class="st0" points="438.9,96 442.5,96 437.1,112.6 431.7,112.6 426.4,96 430.2,96 434.5,109.9 "/>
<rect x="444" y="96" class="st0" width="3.7" height="16.6"/>
<polygon class="st0" points="461.5,96 465,96 465,112.6 461.3,112.6 454.1,101.5 454.1,112.6 450.6,112.6 450.6,96 454.3,96 
	461.5,107.2 "/>
<path class="st0" d="M469.6,110.8c-1.5-1.4-2.2-3.5-2.2-6.4c0-2.9,0.8-5,2.3-6.4c1.5-1.4,3.7-2.2,6.6-2.2c1.2,0,2.4,0.1,3.6,0.4v3
	c-1.1-0.3-2.2-0.4-3.3-0.4c-1,0-2.1,0.2-3,0.6c-0.8,0.4-1.4,1-1.8,1.8c-0.4,1-0.6,2.1-0.6,3.2c0,1.1,0.1,2.2,0.6,3.2
	c0.3,0.8,0.9,1.4,1.7,1.8c0.9,0.4,1.9,0.6,2.9,0.5c1.2,0,2.3-0.2,3.4-0.5v3c-0.6,0.2-1.2,0.3-1.8,0.4c-0.7,0.1-1.3,0.1-2,0.1
	C473.2,112.9,471.1,112.2,469.6,110.8"/>
<rect x="481.9" y="96" class="st0" width="3.7" height="16.6"/>
<path class="st0" d="M499.7,112.6l-1.4-4.4h-6.2l-1.4,4.4h-3.6l5.4-16.6h5.4l5.4,16.6L499.7,112.6z M493.1,105.3h4.4l-2.2-7.1
	L493.1,105.3z"/>
<path class="st0" d="M510.6,112.5V96.4c0.8-0.2,1.7-0.3,2.6-0.4c0.9-0.1,1.8-0.1,2.7-0.1c3,0,5.3,0.7,6.9,2.1
	c1.5,1.4,2.3,3.5,2.3,6.4c0.1,1.7-0.3,3.3-1.1,4.8c-0.7,1.3-1.9,2.2-3.3,2.8c-1.8,0.6-3.6,0.9-5.5,0.9
	C513.7,112.8,512.1,112.7,510.6,112.5 M519,109.3c0.8-0.4,1.4-1,1.7-1.8c0.4-1,0.6-2.1,0.6-3.2c0-1.1-0.2-2.2-0.6-3.2
	c-0.3-0.8-0.9-1.4-1.7-1.8c-0.9-0.4-1.9-0.6-2.9-0.6c-0.6,0-1.3,0.1-1.9,0.2v10.8c0.6,0.1,1.2,0.1,1.8,0.1
	C517.1,109.9,518.1,109.7,519,109.3"/>
<polygon class="st0" points="531.1,109.7 539.3,109.7 539.3,112.6 527.5,112.6 527.5,96 539.2,96 539.2,99 531.1,99 531.1,102.7 
	538,102.7 538,105.6 531.1,105.6 "/>
<path class="st0" d="M210.8,142.1c1.3,1.6,1.9,3.7,1.8,5.7c0.1,2.1-0.6,4.1-1.8,5.8c-1.5,1.8-3.5,3-5.8,3.6
	c-3.4,0.9-6.9,1.3-10.4,1.2c-1.5,0-3.3-0.1-5.1-0.2c-1.9-0.1-3.6-0.3-5.1-0.5v-35.2c1.9-0.4,3.8-0.7,5.7-0.9c2-0.2,4-0.3,6-0.3
	c5.4,0,9.3,0.8,11.8,2.5s3.7,4.2,3.7,7.6c0,1.8-0.5,3.5-1.5,5c-1,1.4-2.6,2.5-4.3,2.9C207.7,139.5,209.5,140.5,210.8,142.1
	 M192.2,127.4v9h5.2c2.4,0,4.1-0.4,5.1-1.1c1.1-0.9,1.6-2.2,1.5-3.6c0-0.9-0.2-1.9-0.7-2.7c-0.5-0.7-1.3-1.3-2.2-1.5
	c-1.3-0.4-2.7-0.5-4.1-0.5C195.4,127,193.8,127.2,192.2,127.4 M201.8,152c1-0.2,2-0.8,2.6-1.7c0.6-0.8,0.8-1.9,0.8-2.9
	c0.1-1.5-0.5-2.9-1.6-3.9c-1.1-0.8-2.9-1.2-5.4-1.2h-6v9.9c1.5,0.1,3,0.2,4.5,0.2C198.4,152.6,200.1,152.4,201.8,152"/>
<path class="st0" d="M220.7,154.6c-2.5-2.5-3.7-6.5-3.7-11.7v-21.3h8v22c0,2.8,0.6,4.9,1.8,6.2c1.2,1.3,3,2,5.5,2
	c2.5,0,4.3-0.7,5.5-2c1.2-1.3,1.8-3.4,1.8-6.2v-22h7.9v21.3c0,5.3-1.2,9.2-3.7,11.7c-2.5,2.5-6.3,3.8-11.5,3.8
	C227.1,158.4,223.2,157.2,220.7,154.6"/>
<polygon class="st0" points="261.9,151.6 279.9,151.6 279.9,158 254,158 254,121.6 279.6,121.6 279.6,128 261.9,128 261.9,136.2 
	277.1,136.2 277.1,142.6 261.9,142.6 "/>
<polygon class="st0" points="308.8,121.6 316.3,121.6 316.3,158 308.3,158 292.4,133.6 292.4,158 284.9,158 284.9,121.6 293,121.6 
	308.8,145.9 "/>
<path class="st0" d="M329.7,156.4c-2.6-1.4-4.7-3.6-6-6.2c-1.5-3.2-2.2-6.8-2.1-10.4c-0.1-3.6,0.6-7.1,2.1-10.4
	c1.3-2.7,3.4-4.8,6-6.2c5.8-2.7,12.5-2.7,18.3,0c2.6,1.4,4.7,3.6,5.9,6.2c1.5,3.2,2.2,6.8,2,10.3c0.1,3.6-0.6,7.1-2.1,10.3
	c-1.3,2.7-3.4,4.8-6,6.2C342.1,159.1,335.4,159.1,329.7,156.4 M345.4,149.1c1.5-1.9,2.3-5,2.3-9.1c0-4.3-0.8-7.5-2.3-9.4
	c-1.6-2-4.1-3.1-6.6-2.9c-2.6-0.2-5,0.9-6.7,2.9c-1.5,1.9-2.3,5-2.3,9.1c0,4.3,0.8,7.5,2.3,9.4c3.4,3.7,9.2,3.9,12.8,0.5
	C345.1,149.4,345.3,149.2,345.4,149.1"/>
<path class="st0" d="M365.2,158c-1.7-0.2-3.3-0.6-4.9-1.1v-6.5c3.3,1,6.7,1.6,10.2,1.6c1.8,0.1,3.5-0.2,5.1-1.1
	c1.6-1.2,2-3.3,1.1-5.1c-0.4-0.6-1-1.1-1.6-1.4c-1-0.5-2.1-0.9-3.2-1.1l-2.7-0.7c-2.7-0.5-5.3-1.8-7.3-3.8c-1.7-1.8-2.5-4.2-2.4-6.7
	c-0.2-3.2,1.3-6.3,3.8-8.2c2.6-1.9,6.3-2.9,11.4-2.9c1.5,0,3.1,0.1,4.6,0.3c1.3,0.2,2.7,0.4,4,0.8v6.5c-1.3-0.4-2.6-0.7-3.9-0.8
	c-1.4-0.2-2.9-0.3-4.3-0.3c-2.7,0-4.7,0.4-5.9,1.1c-1.1,0.6-1.8,1.8-1.8,3.1c0,0.6,0.1,1.3,0.4,1.8c0.3,0.6,0.8,1,1.4,1.3
	c0.9,0.4,1.8,0.8,2.8,1l2.8,0.7c3.5,0.9,6.2,2.2,7.8,3.9c1.7,1.8,2.6,4.2,2.5,6.7c0.1,2.1-0.6,4.2-1.8,6c-1.2,1.8-3,3.1-5,3.9
	c-2.5,0.9-5.2,1.4-7.9,1.3C368.7,158.4,367,158.3,365.2,158"/>
<path class="st0" d="M426.6,158l-3-9.7H410l-3,9.7h-7.8l11.8-36.4h11.7l11.8,36.4H426.6z M412,141.9h9.6l-4.8-15.5L412,141.9z"/>
<rect x="438.1" y="121.6" class="st0" width="8" height="36.3"/>
<path class="st0" d="M474.1,158l-9.3-13.3h-0.4c-1.1,0-2.4,0-3.8-0.1V158h-7.9v-35.6c1.7-0.4,3.6-0.7,5.6-0.9
	c1.9-0.2,3.9-0.3,5.8-0.3c5.3,0,9.2,1,11.8,2.9c2.6,1.9,3.9,4.8,3.9,8.8c0.1,2.3-0.6,4.6-1.9,6.5c-1.4,1.9-3.3,3.3-5.4,4l10.3,14.6
	H474.1z M460.6,138.5c1.3,0.1,2.7,0.2,4,0.2c2.7,0,4.6-0.5,5.9-1.4c1.3-1.1,2-2.7,1.9-4.4c0.1-1.7-0.5-3.3-1.8-4.4
	c-1.2-0.9-3.1-1.4-5.6-1.4c-1.4,0-2.9,0.1-4.3,0.4L460.6,138.5z"/>
<polygon class="st0" points="494.5,151.6 512.4,151.6 512.4,158 486.6,158 486.6,121.6 512.2,121.6 512.2,128 494.5,128 
	494.5,136.2 509.7,136.2 509.7,142.6 494.5,142.6 "/>
<path class="st0" d="M521.3,158c-1.7-0.2-3.3-0.6-4.9-1.1v-6.5c3.3,1,6.7,1.6,10.2,1.6c1.8,0.1,3.5-0.2,5.1-1.1
	c1.6-1.2,2-3.3,1.1-5.1c-0.4-0.6-1-1.1-1.6-1.4c-1-0.5-2.1-0.9-3.2-1.1l-2.7-0.7c-2.7-0.5-5.3-1.8-7.3-3.8c-1.7-1.8-2.5-4.2-2.4-6.7
	c-0.2-3.2,1.3-6.3,3.8-8.2c2.6-1.9,6.3-2.9,11.3-2.9c1.5,0,3.1,0.1,4.6,0.3c1.3,0.2,2.7,0.4,4,0.8v6.5c-1.3-0.4-2.6-0.7-3.9-0.8
	c-1.4-0.2-2.9-0.3-4.3-0.3c-2.7,0-4.7,0.4-5.9,1.1c-1.1,0.6-1.8,1.8-1.8,3.1c0,0.6,0.1,1.3,0.4,1.8c0.3,0.5,0.8,1,1.4,1.3
	c0.9,0.4,1.8,0.8,2.8,1l2.8,0.7c3.5,0.9,6.2,2.2,7.8,3.9c1.7,1.8,2.6,4.2,2.5,6.7c0.1,2.1-0.6,4.2-1.8,6c-1.2,1.8-3,3.1-5,3.9
	c-2.5,0.9-5.2,1.4-7.9,1.3C524.8,158.4,523.1,158.3,521.3,158"/>
<rect x="66.2" y="62.5" class="st0" width="1.6" height="6.3"/>
<rect x="70.2" y="62.5" class="st0" width="1.6" height="6.3"/>
<path class="st0" d="M70.6,59.5h-7c-0.5,0-0.8,0.4-0.8,0.8v1.2h-3.5c-1.2,0-2.2,1-2.2,2.2l-0.3,3.8l-0.8,0.8c-0.4,0.5-0.6,1-0.6,1.7
	v4.2c0,0.5,0.4,0.8,0.8,0.8h0.7c0.4,1.6,2.1,2.5,3.6,2c1.6-0.4,2.5-2.1,2-3.6c-0.4-1.6-2.1-2.5-3.6-2c-0.8,0.2-1.4,0.7-1.8,1.4v-1.3
	h0.3c0.5,0,0.9-0.4,0.9-0.9c0-0.5-0.4-0.9-0.9-0.9l0,0H57c0-0.1,0-0.2,0.1-0.3l0.8-0.8h4.8v5.4c0,0.5,0.4,0.8,0.8,0.8h1
	c0.9-0.6,1.8-1.2,2.7-1.7l0,0h-2.8v-1.8h6.8c2.1-0.8,4.2-1.3,6.4-1.7H64.4v-8.7h8.9C72.5,60.7,71.5,60.1,70.6,59.5 M59.6,73
	c0.7,0,1.2,0.6,1.2,1.2c0,0.7-0.6,1.2-1.2,1.2s-1.2-0.6-1.2-1.2C58.4,73.6,58.9,73,59.6,73L59.6,73 M62.7,67.1h-4.3l0.3-3.2l0,0
	c0-0.3,0.2-0.5,0.5-0.6h3.5V67.1z"/>
<path class="st0" d="M75.1,62.5h-1v6.3h1.6v-5.9L75.1,62.5"/>
<path class="st0" d="M78.1,64.6v4.2h1.6v-3L78.1,64.6"/>
<path class="st0" d="M35.9,89v-7l4.2,4.2l1.7-0.7V65.3l4.4-2.3c-0.5,0.9-0.9,2-1.1,3c-0.7,3.6,0,7.3,1.8,10.4l0,0
	c0.1,1.3,0.6,2.5,1.5,3.4l0.6,0.7c0.3,0.3,0.7,0.3,1,0.1c0,0,0,0,0.1-0.1l0.6-0.5l1,1.1c0.3,0.3,0.7,0.3,1,0.1c0,0,0,0,0.1-0.1
	c0.6-0.5,1.6-0.5,2.1,0.2c0.5,0.6,0.5,1.6-0.2,2.1c-0.6,0.5-1.5,0.5-2.1-0.1c-0.3-0.3-0.8-0.2-1.1,0.1c-0.2,0.3-0.3,0.6-0.1,0.9
	c1.1,1.2,3,1.4,4.2,0.3s1.4-3,0.3-4.2c-0.9-1-2.4-1.3-3.6-0.7L51.8,79l0.6-0.5c0.3-0.2,0.4-0.7,0.1-1c0,0,0,0-0.1-0.1l-0.6-0.7
	c-0.8-0.8-1.7-1.4-2.8-1.7h0.1c-0.2-0.4-5.4-8.8,3.3-15.4l2.5-1.3l-0.5-1.9l-12.6,0.1v-3l-1-1h-5.9l-1,1v36.8l1.2-0.9L35.9,89z
	 M50.7,77.8l0.1,0.1l-1.1,1l-0.1-0.1c-0.6-0.6-1-1.5-1.1-2.3C49.3,76.7,50.1,77.1,50.7,77.8 M49.8,58.4c-0.3,0.3-0.5,0.5-0.8,0.8
	l-2.4,1.3l-2.7-2L49.8,58.4z M41.8,59.5l2.8,2L41.8,63V59.5z M39.8,83.1l-3.5-3.5l3.5-3.3V83.1z M39.8,72l-3.3-2.5l3.3-2.7V72z
	 M39.8,57.5v5.1l-3.5-2.8l3.5-3.4V57.5z M35.9,54.6h3l-3,2.9V54.6z M35.9,62l3.4,2.7l-3.4,2.7V62z M35.9,71.5l3.4,2.5l-3.4,3.2V71.5
	z"/>
<path class="st0" d="M48.4,115.1c2.9,0,5.2-2.3,5.2-5.2c0-2.6-1.9-4.8-4.5-5.1c-2.8-0.5-5.5,1.3-6,4.1c-0.5,2.8,1.3,5.5,4.1,6
	c0.2,0,0.4,0.1,0.6,0.1C47.9,115,48.1,115,48.4,115.1 M46.8,111c-0.6-0.9-0.4-2.1,0.5-2.8c0.3-0.2,0.7-0.4,1.1-0.4h0.3
	c1.1,0.3,1.6,1.4,1.3,2.5c-0.3,0.8-1,1.4-1.8,1.4l0,0C47.6,111.7,47.1,111.4,46.8,111"/>
<path class="st0" d="M166.4,112.8l-0.4,0.5c-0.4,0.5-1.4,1.4-1.9,1.9l-0.3,0.2c-0.5,0.4-1.2,0.8-1.8,1c-1.7,0.6-2.9,2-3.2,3.8
	c-0.2-0.8-0.4-1.7-0.3-2.6c0.3-1.6,1-3.2,2-4.5c0.2-0.4,0.4-0.7,0.7-1.1c0.3-0.5,0.1-1-0.4-1.3c-0.2-0.1-0.4-0.1-0.6-0.1
	c-2,0.3-3.9,1-5.6,2.1c0.4-1.1,1.1-2.2,2-3l0.4-0.4c0.3-0.4,0.3-1-0.1-1.3c-0.3-0.2-0.7-0.3-1-0.1c-1.3,0.7-2.5,1.3-3.8,1.9
	c-1.1,0.5-2.2,0.9-3.2,1.3c-0.8,0.3-1.6,0.7-2.3,1.2c0.2-0.4,0.4-0.8,0.7-1.1c0.5-0.7,1.1-1.3,1.8-1.8c0.3-0.3,0.6-0.6,0.9-0.9
	c1.3-1.3,2.4-2.7,3.3-4.2c0.3-0.4,0.1-1-0.3-1.3c-0.1,0-0.1-0.1-0.2-0.1c-1-0.3-2-0.4-3-0.4c-0.5,0-0.9,0.2-1.3,0.5l-0.1,0.1
	l-0.1,0.1l0.1-0.2c0.2-0.6,0.6-1.2,1.1-1.6c0.1,0,0.1-0.1,0.2-0.2c0.4-0.4,0.4-1,0-1.4c-0.2-0.2-0.5-0.3-0.7-0.3c-0.1,0-0.2,0-0.3,0
	c-0.7,0.2-1.5,0.2-2.3,0.1c-1.6-0.3-3.2-0.4-4.7-0.1l0.2-0.2c1.1-0.9,2.4-1.6,3.8-1.9c0.9-0.3,1.9-0.7,2.7-1.2l0.9-0.4
	c0.5-0.2,0.8-0.6,0.8-1.1c0-0.5-0.3-0.9-0.8-1.1c-0.8-0.4-1.7-0.5-2.6-0.4c0.5-0.2,0.9-0.6,1.1-1.1c0.3-0.4,0.8-0.6,1.6-0.8h0.1
	c0.5-0.2,0.8-0.7,0.6-1.2c-0.1-0.2-0.2-0.4-0.4-0.5l-0.4-0.3c-0.3-0.2-0.5-0.3-0.8-0.5c-1-0.7-1.9-1.6-2.4-2.8
	c-0.4-0.8-1-1.3-1.8-1.7c-0.6-0.3-1.1-0.5-1.7-0.6c1.2-0.3,2.4-0.2,3.6,0.3c1.6,0.6,3.1,1.3,4.5,2.2l0,0c0.3,0.2,0.6,0.4,1,0.3
	c0.4-0.1,0.7-0.4,0.8-0.8c0.3-2-0.4-4.1-1.8-5.6c1.4,0.4,2.7,1.1,3.9,1.9c0.4,0.3,1,0.1,1.3-0.3c0.2-0.3,0.2-0.7,0-1
	c-0.3-0.3-0.5-0.7-0.6-1.1c-0.1-0.2-0.1-0.4-0.3-0.7c-0.1-0.4-0.2-0.9-0.1-1.3c0-0.2,0-0.5,0-0.7c0.1-0.9,0.4-1.9,0.8-2.7l-1.4-1.2
	c-0.7,1.2-1.1,2.5-1.2,3.9c0,0.2,0,0.4,0,0.6c-0.1,0.5-0.1,1.1,0,1.6c-1.6-0.8-3.3-1.2-5-1.2c-0.5,0-0.9,0.4-0.9,1
	c0,0.3,0.1,0.5,0.3,0.7c1.6,1.4,2.9,2.8,3.2,4.5c-1.2-0.7-2.5-1.3-3.8-1.7c-3-1.1-5.7-0.3-8.2,0.9c-0.5,0.2-0.7,0.8-0.5,1.2
	c0.1,0.2,0.3,0.4,0.5,0.5c0.3,0.1,0.6,0.2,0.9,0.2c1.4,0.1,2.7,0.5,4,1c0.4,0.1,0.7,0.4,0.9,0.8c0.6,1.4,1.6,2.5,2.9,3.4
	c-0.4,0.2-0.7,0.5-1,0.9c-0.3,0.5-1,0.7-1.5,0.6c-0.5-0.2-1,0-1.2,0.4c-0.3,0.4-0.2,1,0.1,1.4l0,0c0.6,1.1,1.8,1.7,3,1.6
	c-0.4,0.2-0.9,0.4-1.4,0.5c-1.7,0.4-3.3,1.2-4.6,2.3c-0.3,0.3-0.8,0.5-1.2,0.5H139c-0.6-0.2-1.2,0.2-1.4,0.8c-0.2,0.6,0,1.3,0.5,1.7
	c0.4,0.4,0.9,0.6,1.4,0.7c0.5,0,1,0,1.6-0.1c1.5-0.3,3.1-0.3,4.6,0c0.3,0.1,0.7,0.1,1,0.1c-0.1,0.3-0.3,0.6-0.4,0.9
	c-0.3,0.8-0.6,1.2-1.1,1.4c-0.4,0.1-0.8,0.5-0.9,0.9c-0.1,0.5,0.1,0.9,0.6,1.2c0.7,0.5,1.5,0.5,2.2,0.1c0.6-0.3,1.2-0.7,1.8-1.1
	l0.4-0.3l0.1-0.1l0.3-0.2c0.3,0,0.7,0,1,0c-0.7,1-1.5,1.9-2.3,2.7c-0.3,0.3-0.6,0.6-0.9,0.8c-0.7,0.6-1.4,1.3-2,2.1
	c-1,1.2-1.5,2.7-1.4,4.2c0,0.5,0.4,0.9,1,0.9c0,0,0.1,0,0.1,0c0.3-0.1,0.6-0.2,0.9-0.4l0.2-0.1c1-0.7,2-1.3,3.1-1.8
	c1.1-0.4,2.3-0.9,3.4-1.4l0.4-0.2c-0.5,1-0.6,2.2-0.4,3.3c0.1,0.5,0.6,0.9,1.1,0.8c0.1,0,0.3-0.1,0.4-0.2c1.3-1,2.7-1.8,4.3-2.3
	c-0.9,1.4-1.5,2.9-1.8,4.5c-0.3,2.2,1.1,6.1,2.1,7c0.4,0.3,1,0.3,1.3-0.1c0.1-0.2,0.2-0.3,0.2-0.5c0.1-1,0.1-1.9,0.3-2.8
	c0.1-1.3,0.9-2.4,2.1-2.8c0.9-0.3,1.7-0.7,2.4-1.3l0.3-0.2c0.4-0.3,0.8-0.7,1.1-1.1c0.2-0.2,0.4-0.4,0.5-0.5
	c-0.1-0.7-0.3-1.5-0.5-2.2"/>
<rect x="83.8" y="43.1" class="st0" width="2" height="2"/>
<rect x="91.4" y="43.1" class="st0" width="2" height="2"/>
<path class="st0" d="M81.6,40.5l6.2-4.5v4c0,0.3,0.1,0.5,0.3,0.7l0,0v0.1c0.3,0.2,0.7,0.2,0.9,0l0.3-0.2l0,0l6.2-4.5v4
	c0,0.3,0.1,0.5,0.3,0.7l0,0v0.1c0.3,0.2,0.7,0.2,0.9,0l0.3-0.2l0,0l6.2-4.5v2.1h1.6v-3.7c0-0.3-0.1-0.5-0.3-0.7l0,0l0,0
	c-0.3-0.2-0.7-0.2-0.9,0l-0.3,0.2l0,0L97,38.6v-4c0-0.3-0.1-0.5-0.3-0.7l0,0l0,0c-0.3-0.2-0.7-0.2-0.9,0l-0.3,0.2l0,0l-6.2,4.5v-4
	c0-0.3-0.1-0.5-0.3-0.7l0,0l0,0c-0.3-0.2-0.7-0.2-0.9,0l-7.7,5.5c-0.2,0.2-0.3,0.4-0.3,0.7v9c0.5,0.4,1.1,0.7,1.6,1.1V40.5z"/>
<path class="st0" d="M74.1,54.7l0.9,0.5l1-1.8l-0.9-0.5c-0.9-0.5-1.8-1-2.8-1.5L71.5,51l-0.9,1.8l0.9,0.4
	C72.4,53.7,73.3,54.2,74.1,54.7"/>
<path class="st0" d="M111,70l1-0.2l-0.4-2l-1,0.2c-1,0.2-1.9,0.3-2.9,0.4l-1,0.1l0.2,2l1-0.1C108.9,70.3,110,70.2,111,70"/>
<path class="st0" d="M88.2,64.5l1.2-1.7L87,61.2l-1-0.7L85.2,60L84,61.6l0.8,0.6l1,0.7L88.2,64.5z"/>
<path class="st0" d="M79.3,58.2l1.4,1l0.8,0.6l1.2-1.6l-0.8-0.6l-1.3-1l-1.1-0.8l-0.8-0.6l-1.2,1.6l0.8,0.6L79.3,58.2"/>
<path class="st0" d="M103.7,70.5l0.2-2l-1-0.1c-1-0.1-1.9-0.2-2.9-0.5l-1-0.2l-0.5,2l1,0.2c1,0.3,2.1,0.4,3.2,0.5L103.7,70.5z"/>
<path class="st0" d="M95.5,68.6l0.8-1.9l-0.9-0.4c-0.9-0.4-1.8-0.8-2.6-1.3l-0.9-0.5l-1,1.8l0.9,0.5c0.9,0.5,1.8,1,2.8,1.4
	L95.5,68.6z"/>
<path class="st0" d="M153.9,97.3c1.5,8.2,9.4,12.7,9.9,13c0.7,0.4,1.4,0.8,2.2,1.1c-0.6-1.1-1.1-2.2-1.5-3.4c-1.6-1-7.2-5-8.3-11.2
	c-0.7-4.1,0.6-8.4,4.1-12.9c0-0.3,0-0.6,0-1c0-0.8-0.1-1.5-0.3-2.3c-0.4,0.3-0.6,0.6-0.6,0.6l0,0c-4.6,5.4-6.4,10.7-5.5,15.9"/>
<path class="st0" d="M146.9,148.5l-0.4-0.1c-1.1-1.4-2.1-2.9-3.1-4.4c-1.4-2.2-3-4.6-4.4-6.3c1.1-1,1.6-2.4,1.3-3.9
	c0,0-0.4-4.1-2.1-4.3c-0.6-0.1-1.1,0.3-1.3,0.9v0.1c-0.3,1.2-0.9,2.3-1.9,3.1c-0.3-0.2-0.7-0.3-1-0.3c0.8-1.6,0.6-3.5-0.5-4.9l0,0
	c-0.2-0.4-0.6-0.6-1-0.6c-0.4,0-0.7,0.2-0.9,0.6c-0.1,0.2-0.2,0.4-0.3,0.7c-0.4,1.2-1.3,2.1-2.4,2.5c-1.4,0.6-2.5,1.9-2.7,3.5
	c-0.6-0.3-1.2-0.6-1.8-0.7c-1.1-0.2-2.3,0-3.2,0.7c-0.6,0.4-1,1-1.1,1.6c0.1,0.9,0.6,1.8,1.3,2.3c-0.9,0.2-1.8,0.3-2.7,0.4
	c-0.5,0.8-1,1.6-1.7,2.3c2.4-0.2,4.8-0.6,7.1-1.1c0.5-0.1,0.9-0.6,0.9-1.1c0-0.3-0.3-0.6-0.6-0.8c-0.8-0.5-1.6-1.1-2.3-1.8
	c0.4-0.4,1-0.6,1.6-0.5c1,0.3,2,0.8,2.7,1.7v0.1c0.2,0.5,0.9,0.8,1.4,0.5c0.5-0.2,0.8-0.9,0.5-1.4c-1-2.7,0.7-3.5,1.2-3.8
	c1-0.4,1.9-1.1,2.6-2c-0.2,1.1-0.8,2-1.6,2.6c-0.5,0.3-0.5,1-0.2,1.5c0.3,0.5,1,0.5,1.5,0.2c0.6-0.5,1.5-0.5,2.1-0.1
	c0.3,0.3,0.8,0.4,1.3,0.2c1.2-0.6,2.1-1.6,2.6-2.8c0.2,0.8,0.3,1.7,0.1,2.5c-0.1,0.4-0.3,0.7-0.7,0.8c-0.5,0.1-0.8,0.5-1,0.9
	c-0.1,0.4,0,0.7,0.2,1c1.8,2.2,3.4,4.6,4.9,7c2.3,3.5,3.1,4.8,3.8,5.1c0.3,0.1,0.7,0.3,1,0.3l0.4,0.1c0.1,1-0.1,2-0.6,2.9h-0.1
	c-0.2,0.1-0.4,0.2-0.6,0.4c-0.5,0.8-1.1,1.5-1.8,2.1c-0.7,0.6-1.5,0.2-2.8-0.4c-0.5-0.2-0.9-0.4-1.4-0.6c-2.5-0.7-5.2-0.8-7.8-0.3
	c-1.5,0.3-2.9,0.8-4.3,1.5c-1.7,0.9-2.6,4.7-3,6.3c-0.1,0.5,0.2,1.1,0.7,1.2c0,0,0,0,0.1,0h0.2c0.5,0,0.9-0.3,1-0.8
	c0.4-2.3,1.3-4.6,1.8-4.9c1.2-0.6,2.5-1.1,3.8-1.4c2.3-0.4,4.6-0.3,6.8,0.3c0.3,0.1,0.7,0.3,1,0.4c1.3,0.6,3.3,1.6,5,0.1
	c0.7-0.6,1.4-1.3,2-2.1l0.2-0.1c0.3-0.1,0.5-0.3,0.7-0.5c0.2-0.4,1.9-3.6,0.6-5.6C148.2,148.8,147.6,148.7,146.9,148.5"/>
<path class="st0" d="M150.9,125.7c-3.1,0-6.1,1.3-8.1,3.6h-0.1v0.1c-0.2,0.3-0.4,0.5-0.6,0.8l0.4,0.9c2.5,0.4,5.2,3.1,5.2,3.1
	l0.4,0.4l0.5-0.2c0.7-0.1,1.4,0,2,0.3l-2.9,5.2h-1.1h-0.7c-0.5,0-1,0-1.6,0s-1.2,0-1.8,0l1.9,2.5c1,0,2.7,0,3.6,0.1h0.3
	c0.9,0.1,1.9,0.2,2.8,0.3c2.2,0.3,4.4,0.8,6.5,1.5c0.5-0.8,1-1.5,1.5-2.2c-3-1.1-6.2-1.8-9.4-2.1l2.4-4.4c0.4,0.3,0.8,0.7,1,1.2
	l0.3,0.9l0.9-0.3c0.9-0.3,2.5,0.3,4,1.9l0,0h0.1c0.2,0.2,0.5,0.5,0.7,0.8l0.8,0.2c1-1.5,1.5-3.2,1.5-5
	C161.3,130,156.6,125.6,150.9,125.7 M159.1,137.6c-1.2-1.2-2.9-1.9-4.6-2c-1.4-1.9-3.6-3-6-3c-1.1-1.1-2.4-2-3.9-2.7
	c1.7-1.5,3.9-2.4,6.2-2.4c4.8,0,8.6,3.5,8.6,7.9C159.4,136.2,159.3,136.9,159.1,137.6"/>
<path class="st0" d="M125.4,152.4c0.6-0.3,1.2-0.4,1.8-0.2c0.6,0.2,1.3-0.2,1.5-0.8c0.1-0.3,0.1-0.5-0.1-0.8
	c-0.3-0.6-0.7-1.2-1.2-1.5c-0.7-0.4-1.5-0.7-2.3-0.6c-1.8-2.1-4.1-3.7-5.6-4c-0.5-0.1-1-0.2-1.6-0.1c-1.7,0.1-3.3,0.7-4.6,1.8
	c-1.3,1.1-2.3,2.6-2.8,4.3l0,0c-0.2,0.7-0.3,1.3-0.4,2c-0.1,1.8,0.2,3.5,0.9,5.1l0.4,0.9c0.8,1.6,2,3.1,3.4,4.2
	c0.6,0.6,1.5,0.9,2.3,1c0.3,0,0.5,0,0.8-0.1c1.2-0.5,1.8-2.3,1.4-4.9l0,0c-0.1-1.2-0.3-2.3-0.6-3.5c-0.2-0.6-0.3-1.2-0.4-1.9
	c0,0-0.3-2.5,0.9-2.9c0.9-0.3,1.9-0.1,2.4,0.6c-0.1,0.3-0.2,0.7-0.3,1c-0.2,1.1,0.1,2.2,0.9,3c0.5,0.5,1.2,0.5,1.7,0.1
	c0.2-0.2,0.4-0.6,0.4-0.9c-0.1-0.7,0.2-1.3,0.8-1.6 M117.5,162.1c-0.2,0.1-0.8-0.1-1.5-0.6c-1.1-0.9-2-2-2.7-3.3
	c1.1-1.2,2.7-1.8,4.4-1.5c0.1,0.8,0.3,1.9,0.3,2.1l0,0C118.2,159.9,118,161,117.5,162.1 M113.8,154.1c0.4-0.3,0.8-0.4,1.3-0.3
	c0,0.5,0,1-0.1,1.4l-0.4,0.2C114.3,155,114,154.6,113.8,154.1 M123.2,152.6c0-0.4,0.1-0.9,0.3-1.3c0.2-0.2,0.2-0.5,0.1-0.8
	c-0.3-0.8-1-1.4-1.7-1.7c-0.9-0.4-1.9-0.4-2.8-0.1c-0.7,0.2-1.3,0.7-1.7,1.4c-0.6,1.5-0.7,3.2-0.1,4.8h-0.5c0.1-0.6,0-1.2-0.1-1.7
	c-0.1-0.4-0.3-0.7-0.7-0.8c-1.3-0.4-2.7-0.1-3.5,0.9c-0.6,0.7,0.1,1.7,0.3,2c0.1,0.1,0.2,0.3,0.3,0.5l0.2,0.4
	c-0.2,0.1-0.5,0.3-0.7,0.4c-0.5-1.3-0.8-2.6-0.7-4l0,0c0.1-0.4,0.1-0.9,0.2-1.3v-0.2V151c0.4-1.4,1.2-2.7,2.3-3.6
	c1.1-0.8,2.3-1.3,3.7-1.4c2.1-0.3,5,2.6,5.9,3.8c0.2,0.2,0.5,0.4,0.8,0.3c0.6-0.1,1.3,0,1.8,0.4l0,0c-0.7,0-1.3,0.2-1.9,0.5
	C124,151.3,123.4,151.9,123.2,152.6"/>
<path class="st0" d="M116.3,158.8c-0.5-0.2-1.1,0-1.3,0.5c-0.2,0.5,0,1.1,0.5,1.3c0.1,0,0.2,0.1,0.3,0.1c0.5,0.1,1-0.3,1.1-0.9
	C116.9,159.4,116.7,159,116.3,158.8"/>
<rect x="94.2" y="52.5" class="st0" width="5.5" height="2"/>
<rect x="94.2" y="55.9" class="st0" width="5.5" height="2"/>
<path class="st0" d="M109.8,43.3h-2.1c-0.2,0-0.3,0.1-0.3,0.3v1.8h-1.8c-0.2,0-0.3,0.1-0.3,0.3v2.1c0,0.2,0.1,0.3,0.3,0.3h1.8V50
	c0,0.2,0.1,0.3,0.3,0.3h2.1c0.2,0,0.3-0.1,0.3-0.3v-1.9h1.8c0.2,0,0.3-0.1,0.3-0.3v-2.1c0-0.2-0.1-0.3-0.3-0.3h-1.8v-1.8
	C110.1,43.4,110,43.3,109.8,43.3"/>
<path class="st0" d="M111.7,61.3V57h1.2v-1.2h-8.2V57h1.2v5.4c0.4,0,0.8,0,1.2-0.1V57h3.5v4.7L111.7,61.3"/>
<path class="st0" d="M101,40v9.1h-9.1c-0.5,0-0.9,0.4-0.9,0.9v7.3c0.6,0.4,1.2,0.8,1.8,1.1v-7.5h8.2V62c0.6,0.1,1.2,0.2,1.8,0.3
	V40.9h12v18.6l1.8-1.3v-7.4h8.2v3.5l0.4,0.3c0.3-0.4,0.8-0.7,1.4-0.8V50c0-0.5-0.4-0.9-0.9-0.9h-9.1V40c0-0.5-0.4-0.9-0.9-0.9h-13.7
	C101.4,39.1,101,39.5,101,40C101,40,101,40,101,40"/>
<path class="st0" d="M107.9,121.6l-0.1,6.5c0.7,0,1.4,0.2,2,0.5l3-5.8C111.5,121.6,109.6,121.1,107.9,121.6"/>
<path class="st0" d="M106.3,128.4l-2-6.2c-1.8,0-3.5,1-4.3,2.6l4.5,4.7C105,128.9,105.6,128.6,106.3,128.4"/>
<path class="st0" d="M96.6,132.5l6.6,0.1c0-0.7,0.2-1.4,0.5-2l-5.8-3C96.5,128.9,96.1,130.8,96.6,132.5"/>
<path class="st0" d="M99.7,140.5l4.7-4.6c-0.5-0.5-0.9-1.1-1.1-1.8l-6.2,2C97.1,138,98.1,139.6,99.7,140.5"/>
<path class="st0" d="M102.6,142.7L102.6,142.7L102.6,142.7L102.6,142.7L102.6,142.7l0.1,0.1l0,0l0.1,0.1l0,0l0.1,0.1l0,0l0.2,0.1
	l0,0l0.2,0.1l0,0l0.2,0.1l0,0l0.2,0.1l0,0l0.2,0.1h0.1l0.3,0.1l0,0l0.3,0.1h0.3l0.3,0.1h0.1h0.3h0.7h0.3h0.1h0.2h0.1l0.3-0.1l0,0
	v-0.2l0.1-6.4c-0.3,0-0.7-0.1-1-0.1c-0.3-0.1-0.6-0.2-0.9-0.4l-2.5,4.9l-0.5,1l0,0L102.6,142.7z"/>
<path class="st0" d="M115.4,140.8l-4.6-4.8c-0.5,0.5-1.1,0.8-1.8,1l2,6.3C112.9,143.3,114.5,142.3,115.4,140.8"/>
<path class="st0" d="M118.8,133l-6.6-0.1c0,0.7-0.2,1.4-0.5,2l5.8,3C118.9,136.6,119.3,134.7,118.8,133"/>
<path class="st0" d="M118.3,129.3c0-1.8-1-3.5-2.6-4.3l-4.7,4.5c0.5,0.5,0.8,1.1,1,1.8L118.3,129.3z"/>
<path class="st0" d="M111,132.7c0-1.8-1.5-3.3-3.3-3.3c-1.8,0-3.3,1.5-3.3,3.3s1.5,3.3,3.3,3.3c0,0,0,0,0,0
	C109.5,136,111,134.5,111,132.7"/>
<rect x="108" y="96.3" class="st0" width="2" height="2"/>
<rect x="108" y="99.7" class="st0" width="2" height="2"/>
<rect x="129.8" y="96.3" class="st0" width="2" height="2"/>
<rect x="129.8" y="99.7" class="st0" width="2" height="2"/>
<rect x="134.3" y="66.6" class="st0" width="2" height="2"/>
<rect x="122.1" y="60.2" class="st0" width="2" height="2"/>
<path class="st0" d="M55,124.1c6.7,1.5,13.7,5.2,17.4,9.4l2.3-0.8c-3.9-4.9-11.7-9.1-19.2-10.8c-7.2-1.8-14.8-1.1-21.6,1.8v2.6
	C40.5,122.7,48.6,122.5,55,124.1"/>
<path class="st0" d="M58,120.2L58,120.2c7,1.6,15.4,6.9,19.1,11.5l2.3-0.8l-0.1-0.1c-3.5-4.7-11.7-10.2-19.1-12.4
	c0.4-0.3,1.2-0.7,1.3-0.8c0.3-0.3,0.7-0.6,1-0.9c7.1,2.1,15.8,8.4,18.9,13.1v0.1l2.2-0.8l-0.4-0.6c-0.8-1.2-1.8-2.3-2.8-3.3
	c0.6-0.4,2-1.4,2.4-1.6c5.4-3.1,19.8-7.5,27.1-5.6l0.4,0.3c2.4,1.6,5.1,2.5,8,2.7h0.5c0.5,0,0.9,0,1.4,0c1.5-0.1,3-0.5,4.4-1
	l0.4-0.2c1.3-0.5,2.8-0.6,4.2-0.3c0.7,0.2,1.3,0.5,1.8,1l0.2,0.2l0.7,0.6c2.4,1.8,5.1,3.6,8.2,4c2,0.2,3.9,0,5.9-0.4l1-0.2
	c1.1-0.3,2-1,3.2-1.1c1.7-0.2,4-0.5,5.9,0.1c-0.5-0.8-0.8-1.7-0.9-2.7c-1.4-0.1-0.1,0-1.6-0.1c-2.2-0.2-4.5,0.2-6.6,1.1
	c0,0-0.4,0.1-1.1,0.3c-1.3,0.4-2.7,0.6-4.1,0.6h-0.3c-2.6-0.3-5-1.2-7.1-2.7l-0.5-0.3c-0.7-0.6-1.4-1.2-2.2-1.7
	c-0.4-0.3-0.9-0.5-1.3-0.7c-2.1-0.8-4.4-0.7-6.4,0.1c-1.7,0.7-3.5,0.9-5.3,0.8c-3.6-0.1-7.8-3.1-7.8-3.1c-2.7-2.3-5.9-4.1-9.2-5.4
	l0,0l0,0c3.3-1.8,6.9-3.1,10.6-3.8c0.7-0.1,1.4-0.2,2.1-0.3c0.8-0.1,1.6-0.2,2.4-0.3c1-0.1,4.7-0.1,4.7-0.1c1,0,2.1,0,3.1,0.1
	c6.5,0.4,12.8,2.5,18.2,6.3c0.3-0.9,0.8-1.7,1.4-2.4c-2.8-2-5.8-3.5-9.1-4.5V93.5c0-0.3-0.1-0.5-0.3-0.7c-0.2-0.2-0.5-0.3-0.7-0.3
	h-5.4v-0.6c0-0.4-0.2-0.7-0.5-0.9l-7.1-4.5v-1h5.4c0.6,0,1-0.4,1-1c0,0,0,0,0-0.1v-3.2c0-0.6-0.4-1-1-1l0,0h-6.5c-0.6,0-1,0.4-1,1
	c0,0,0,0,0,0.1v5.4l-7.1,4.6c-0.3,0.2-0.5,0.5-0.5,0.9v0.6h-5.4c-0.6,0-1,0.4-1,1c0,0,0,0,0,0.1l0.1,11.9l-0.3,0.1
	c-0.5,0.2-1.1,0.5-1.6,0.7l-0.4,0.2c-0.8-0.9-1.4-1.9-1.9-3c-0.4-0.8-0.7-1.6-0.8-2.4c-0.4-1.7-0.4-3.6,0.1-5.3l0.9-2.8
	c-1.1-0.1-2.2-0.2-3.3-0.2c0-0.4,0-0.9,0-1.3s0-0.7,0.1-1c0-0.2,0-0.3,0.1-0.5v-0.2v-0.3c0.1-0.3,0.1-0.7,0.2-1
	c0-0.1,0.1-0.3,0.1-0.4l0.1-0.2l0.1-0.2c0.2-0.3,0.3-0.6,0.6-0.9l0.2-0.3l0.1-0.1l0.3-0.4c0.2-0.3,0.5-0.5,0.7-0.7l0.3-0.3l0.1-0.1
	l0.1-0.1c0.2-0.2,0.5-0.3,0.8-0.5l0.3-0.2l0.2-0.1l0.2-0.1c0.5-0.2,1-0.3,1.5-0.4c0.1,0,0.2-0.1,0.3-0.1l0,0h0.2c0.3,0,0.5,0,0.8,0
	s0.5,0,0.8,0h0.4c0.1,0,0.1,0,0.2,0h0.1c0.6,0.1,1.2,0.3,1.8,0.4l0.4,0.2c0.1,0,0.1,0,0.2,0.1l-0.1-0.1l0.1,0.1l0.5,0.3
	c0.3,0.2,0.7,0.4,1.1,0.5c2,0.7,4.1-0.1,6.1-0.5l1.1-0.2v-2.1l-0.9,0.2c-0.8,0.2-1.6,0.3-2.4,0.5l-0.7,0.1h-0.3h-0.2h-0.5
	c-0.3,0-0.7,0-1,0h-0.3l0,0l-0.3-0.1l-0.3-0.1l0,0l-0.4-0.2c-0.4-0.3-0.9-0.5-1.4-0.6c-1.2-0.4-2.4-0.7-3.7-0.7
	c-2.6-0.1-5.1,0.9-7,2.8c-1.2,1.2-2.1,2.7-2.6,4.3c-0.3,1.4-0.4,2.8-0.4,4.2c-0.8,0-1.9,0-2.8,0.1c0-2.2,0.4-4.4,1-6.5
	c0.2-0.5,0.4-1,0.6-1.4c0.1-0.3,0.3-0.5,0.4-0.8l0.2-0.3l0.1-0.2l0.1-0.1c0.3-0.4,0.7-0.8,1.1-1.1l0.3-0.3l0.2-0.1l0,0
	c0.2-0.2,0.4-0.3,0.7-0.4c0.5-0.3,0.9-0.5,1.4-0.8l0.3-0.2l0.2-0.1l0.8-0.3c1.1-0.3,2.1-0.5,3.2-0.7c1.2-0.2,2.4-0.6,3.3-1.3
	c0.9-0.7,1.5-1.7,2.3-2.4c0.2-0.2,0.4-0.3,0.6-0.4c0.2-0.2,0.5-0.3,0.8-0.5c0.3-0.1,0.5-0.3,0.8-0.4l0.1-0.1l0,0h0.1l0.5-0.2
	c1-0.4,2-0.7,3.1-0.9l0.3-0.1c1.9-0.4,3.8-0.5,5.7-0.5c3.9,0.3,7.7,0.9,11.4,1.9c3.4,0.9,6.8,1.5,10.3,1.8c0.3,0,0.7,0,1,0
	c3.7,0,7.3-1.3,10.1-3.7l-1.6-1.3c-2.4,1.9-5.3,3-8.3,3.1v-6.8c0-0.3-0.1-0.5-0.3-0.7l-1.4-1.1v-3.9c0-0.4-0.4-0.8-0.8-0.8l0,0h-2.4
	c-0.4,0-0.8,0.4-0.8,0.8c0,0,0,0,0,0V63l-2.2-1.5c-0.3-0.2-0.7-0.2-0.9,0l-3,2.2v-2.1c0-0.3-0.1-0.5-0.3-0.7l-1.5-1.1v-3.8
	c0-0.4-0.4-0.8-0.8-0.8l0,0h-2.4c-0.4,0-0.8,0.4-0.8,0.8c0,0,0,0,0,0v0.9l-2.2-1.5c-0.3-0.2-0.7-0.2-0.9,0l-7.8,5.6
	c-0.2,0.1-0.3,0.3-0.3,0.5c-5.7,2.1-10.5,2.6-14.8,1.3c-5.4-1.5-10-4.8-14.2-8.1l-0.2-0.1c-3.8-3-7.4-5.8-11.7-7.9
	c-0.5,0.5-1.1,1-1.7,1.4l0,0c4.3,2,8.1,4.8,11.8,7.7c4.6,3.5,9.3,7.1,15,8.9c4.6,1.4,9.9,1.1,15.8-1V69l1.6-0.6v-6.5l7-5l3,2.1
	c0.4,0.3,0.9,0.2,1.1-0.2c0.1-0.1,0.2-0.3,0.2-0.5v-1.7h0.8v3.5c0,0.3,0.1,0.5,0.3,0.7l1.5,1.1v2.9l-3.1,2.3
	c-0.2,0.2-0.3,0.4-0.3,0.7v3.8c-3.8-0.8-7.8-0.9-11.7-0.2c-0.1,0-0.2,0-0.3,0c-1.3,0.3-2.7,0.7-3.9,1.2c-5.8,1.6-11.9,1.1-17.3-1.5
	c-5.7-2.6-10.4-6.9-15.4-10.5c-5.6-4-11.8-7.8-18.9-8c-4.9-0.2-9.8,0.2-14.7,0.2v2c4.6,0,9.1-0.2,13.7-0.2c2.6-0.1,5.3,0.4,7.8,1.3
	c4,1.7,7.8,3.9,11.3,6.6c4,2.9,7.8,6.2,12.1,8.7c-3.1-0.2-6.2-0.1-9.3,0.2c-4.2,0.4-8.2,1.7-11.9,3.6c-2,1.1-3.8,2.4-5.4,4l1.4,1.4
	c0.3-0.3,0.7-0.6,1-0.9l0.5-0.4l0.3-0.2H66l0.2-0.1c0.8-0.6,1.6-1.1,2.4-1.6c0.8-0.5,1.7-0.9,2.6-1.3l0.3-0.1l0.2-0.1l0.7-0.3
	c0.4-0.2,0.9-0.3,1.3-0.5c4.1-1.3,8.4-1.8,12.6-1.7c2.6,0,5.1,0.2,7.7,0.5h0.2c4,1.6,8.2,2.2,12.5,1.9c-0.3,0.3-0.5,0.6-0.8,0.8
	c-0.2,0.2-0.4,0.4-0.6,0.6h-0.1l-0.2,0.1c-0.1,0.1-0.3,0.2-0.4,0.2l-0.1,0.1h-0.1l-0.4,0.1c-0.3,0.1-0.6,0.2-0.9,0.2
	c-1.1,0.2-2.2,0.3-3.3,0.7c-1.1,0.3-2.2,0.8-3.2,1.4c-2.1,1.3-3.8,3.2-4.7,5.4c-0.9,2.6-1.4,5.3-1.4,8h-0.8
	c-0.8,0.1-1.6,0.2-2.4,0.3c-1.2,0.2,0.8,2.7,0.8,2.8c0.2,0.8,0.3,1.6,0.2,2.5c0,1.7-0.5,3.3-1.3,4.8c-0.5,0.9-1,1.7-1.7,2.5
	c-0.4,0.4-0.8,0.9-1.2,1.3h-1.1c-0.6,0-1.2,0-1.8,0.1l-1.2,0.1l-1.3,0.1v-4.3h2.4c0.7,0,1.4-0.2,2-0.5c0.3-0.2,0.7-0.7,0.7-0.7
	c0.9-0.9,1.5-2.2,1.5-3.5c0-0.4-0.4-0.8-0.8-0.8h-2.7c-1.1,0-2.1,0.4-3,1.1V97c0.7,0.2,1.6,0.2,2.3-0.2c0.7-0.4,1.2-1,1.4-1.7
	c1.6,0.4,3.1-0.6,3.5-2.2c0.1-0.4,0.1-0.9,0-1.3c1.5-0.5,2.4-2.1,1.9-3.7c-0.1-0.4-0.4-0.8-0.6-1.1c1.1-1.2,1-3-0.2-4.1
	c-0.3-0.3-0.7-0.5-1.2-0.7c0.4-1.6-0.6-3.1-2.2-3.5c-0.4-0.1-0.9-0.1-1.3,0c-0.5-1.5-2.2-2.4-3.7-1.8c-0.4,0.1-0.7,0.3-1,0.6
	c-1.2-1.1-3.1-1-4.2,0.2c-0.3,0.3-0.5,0.7-0.6,1.1c-1.6-0.4-3.1,0.6-3.5,2.2c-0.1,0.4-0.1,0.9,0,1.3c-1.5,0.5-2.4,2.1-1.9,3.7
	c0.1,0.4,0.4,0.8,0.6,1.1c-1.1,1.2-1,3,0.2,4.1c0.3,0.3,0.7,0.5,1.1,0.6c-0.4,1.6,0.6,3.1,2.2,3.5c0.4,0.1,0.9,0.1,1.3,0
	c0.2,0.8,0.8,1.4,1.5,1.8c0.7,0.3,1.5,0.4,2.3,0.1v1.8c-0.9-0.7-2-1.1-3.1-1.1h-2.7c-0.4,0-0.8,0.4-0.8,0.8c0,1.3,0.5,2.6,1.5,3.5
	c0.5,0.6,1.1,1,1.9,1.2c1.1,0.1,2.2,0.1,3.3,0.1v4.6c-4,0.7-7.9,2.1-11.5,4c0-0.2,0-0.3,0-0.3v-0.1c0-0.1,0-0.3,0-0.7l1.2-0.4
	c1.1-0.4,2.2-0.9,2.6-1.1c0.5-0.2,1-0.5,1.3-1l0,0c0.2-0.5,0.3-1.1,0.2-1.6v-0.1c0,0,0-0.2-0.1-0.5V106c0-0.1,0-0.2-0.1-0.3
	c-0.1-0.3-0.1-0.6-0.2-0.9c-0.1-0.3-0.2-0.6-0.3-0.9l-0.1-0.3l-0.2-0.6V103c-0.2-0.4-0.4-0.8-0.7-1.1c-0.1-0.1-0.2-0.2-0.3-0.2l0,0
	l-0.2-0.1l0,0c-0.4-0.2-0.9-0.2-1.4-0.1c-0.4,0-1.6,0.2-2.8,0.4l-1.3,0.2c-0.1-0.1-0.2-0.3-0.2-0.4l-0.2-0.3l-0.1-0.1l0-0.1
	l-0.4-0.6c0.2-0.3,0.5-0.7,0.7-1.1c0.6-1,1.2-2,1.4-2.4c0.3-0.4,0.5-1,0.4-1.6l0,0c-0.1-0.5-0.4-1-0.8-1.4L64,94l-0.4-0.3l0,0
	l-0.2-0.2c-0.2-0.2-0.5-0.4-0.7-0.6l-1.4-1h-0.1c-0.6-0.4-1.2-0.5-1.9-0.4c-0.5,0.1-0.9,0.3-1.2,0.7c-0.3,0.3-1.2,1.1-2,1.9
	c-0.3,0.3-0.6,0.6-0.9,0.9l-0.4-0.2l-0.4-0.1l-0.4-0.2l-0.2-0.1l-0.2-0.1c0-0.4,0-0.8,0-1.3c0-0.6-0.1-1.3-0.2-2l-0.1-0.7
	c0-0.5-0.1-1-0.4-1.4c-0.4-0.5-1-0.9-1.7-1c-0.2,0-0.5-0.1-0.7-0.1h-0.2l-1-0.1c-0.4,0-0.9,0-1.3,0h-0.5c-0.7,0-1.3,0.3-1.8,0.8
	c-0.3,0.3-0.5,0.8-0.5,1.2c0,0.2-0.1,0.4-0.2,0.8c-0.1,0.6-0.3,1.3-0.3,2c-0.1,0.5-0.1,0.9-0.2,1.3h-0.1L44.3,94L43.9,94
	c-0.2,0-0.4,0.1-0.6,0.2L43,94.3c-0.2-0.3-0.5-0.7-0.8-1c-0.7-0.9-1.5-1.8-1.8-2.1c-0.3-0.4-0.7-0.7-1.1-0.8
	c-0.7-0.2-1.4-0.1-1.9,0.3l-1.5,0.9l-1.5,1.1c-0.2,0.1-0.3,0.3-0.5,0.4v3.2c0.2,0.5,0.6,1.2,0.9,1.9c0.2,0.4,0.4,0.8,0.6,1.1
	l-0.2,0.2c-0.1,0.1-0.3,0.3-0.4,0.5l0,0l-0.3,0.4l-0.1,0.2l0,0v0.1l-0.5-0.2v2.9l0.6,0.2l1.1,0.4l0.7-1.2c0.1-0.2,0.3-0.4,0.4-0.5
	l0.2-0.3l0.3-0.3v-0.1l0.1-0.1l0,0l0.8-0.8l0.9-0.9l-0.5-0.8l-0.1-0.2l-0.1-0.2c-0.3-0.5-0.6-1.1-0.9-1.6c-0.5-0.8-0.8-1.8-1-2.2
	l1-0.8l1.1-0.7c0.3,0.4,1,1.1,1.6,1.8s0.9,1.2,1.1,1.5v0.1l0.2,0.2l0.6,0.9l1-0.4l0.2-0.1l0,0l1-0.4l0,0l0.2-0.1l0.5-0.1l0.3-0.1
	l0,0c0.2,0,0.4-0.1,0.6-0.1l1.4-0.2l0.1-1.1c0-0.2,0.1-1.1,0.3-2.2c0.1-0.6,0.2-1.3,0.3-1.9c0-0.2,0.1-0.4,0.1-0.5h0.3
	c0.3,0,0.7,0,1,0l1,0.1h0.1h0.2l0.1,0.6c0.1,0.7,0.1,1.3,0.2,1.8c0,0.9,0,1.8,0,2.2v1.1l1.5,0.4l0.3,0.1l0.2,0.1l0.2,0.1l0.4,0.1
	l0.4,0.2c0.1,0,0.3,0.1,0.5,0.2l0.4,0.2l0.2,0.1l1,0.5l0.8-0.9l0.2-0.2c0.4-0.4,0.8-0.9,1.2-1.3c0.7-0.7,1.4-1.4,1.8-1.7l1.1,0.8
	c0.2,0.1,0.3,0.3,0.5,0.4l0.3,0.2l0.1,0.1c-0.3,0.4-0.7,1.3-1.3,2.1s-0.9,1.4-1.3,1.8l-0.7,0.9l0.7,0.9l0.1,0.1l0,0
	c0.4,0.5,0.6,0.8,0.8,1.1l0,0l0,0l0,0l0,0l0,0l0.6,1.1l0.1,0.1v0.1v0.1l0.5,1l1.1-0.3c0.4-0.1,1.3-0.3,2.2-0.4s1.9-0.3,2.4-0.3
	l0.1,0.2l0.3,1.1l0.3,1.1v0.2c-0.5,0.2-1.4,0.6-2.2,0.9s-1.5,0.6-2.1,0.7l-1.1,0.3l0.1,1.1c0,0.1,0,0.1,0,0.2l0,0c0,0.6,0,1,0,1.4
	l0,0c0,0-0.1,0.6-0.2,1.5l0,0v0.2l-0.1,0.7c-0.8,0.5-1.5,1.1-2.2,1.7c-1.3,0.8-2.7,1.5-4.2,2.1c-5.9-1.1-13.7-1-20.1,1.1l0.2-0.1
	l-0.6-1l0,0l-0.1-0.2l-0.5-1l-1,0.2v5.7c7.2-3.7,17.8-3.4,24.1-1.8 M132.5,94.6l0.1,9.8c-1.5-0.4-2.9-0.7-4.4-1l-0.1-8.9L132.5,94.6
	z M120.2,102.9c-0.8,0-1.7,0-2.5,0v-3.2c-0.1-1,0.7-1.9,1.7-2s1.9,0.7,2,1.7c0,0.1,0,0.2,0,0.3v3.2H120.2 M124.9,82.2v1.1h-4.4v-1.1
	L124.9,82.2z M119.5,88.4l6.5,4.2l0.1,10.6c-0.6-0.1-1.2-0.1-1.8-0.2s-1.1-0.1-1.6-0.1v-3.3c0-1.7-1.4-3.1-3.1-3.1
	c-1.7,0-3.1,1.4-3.1,3.1l0,0v3.3h-0.3c-1,0.1-2.1,0.2-3.1,0.3L113,92.5L119.5,88.4z M110.9,94.7l0.1,9l-0.4,0.1
	c-1.4,0.3-2.7,0.6-4,1.1l-0.1-10.1L110.9,94.7z M127.9,68.1l7-5l3,2.1c0.4,0.3,0.9,0.2,1.1-0.2c0.1-0.1,0.2-0.3,0.2-0.5v-1.7h0.8
	v3.5c0,0.3,0.1,0.5,0.3,0.7l1.5,1.1v6.4c-3.2-0.4-6.4-1-9.6-1.8c-1.4-0.3-2.8-0.7-4.3-1L127.9,68.1z M75,120.5
	c-0.8-0.6-1.6-1.1-2.4-1.6c0.5-0.4,1-0.8,1.6-1.2c4.9-3.2,14.3-6.4,20.9-7.1l0.7,0.2c1,0.2,2,0.5,3,0.9l0.2,0.1
	c-7.3,0.7-17,4-22,7.3c-0.5,0.3-1,0.7-1.5,1.1L75,120.5 M103.6,113.6c1.1,0.6,2.1,1.2,3.1,1.8c-7.3-0.3-19.5,2.9-25.3,6.4
	c-0.5,0.3-1,0.7-1.5,1.1l-0.9,0.7c-0.7-0.6-1.3-1.2-2.1-1.7l0.1-0.1c0.6-0.5,1.2-0.9,1.8-1.2C84.1,117.4,96.6,113.4,103.6,113.6
	 M88.6,106c0.5-0.8,0.9-1.6,1.3-2.4c0.7-1.6,1-3.2,1.1-5c0-1-0.1-2.1-0.3-3.1c1.8-0.1,3.6-0.2,5.4-0.2h1.2c-0.6,2.3-0.6,4.8,0.1,7.1
	c0.2,0.8,0.6,1.6,0.9,2.4l0.2,0.4c0.5,0.9,1,1.7,1.6,2.5c-0.6,0.3-1.1,0.6-1.6,1l-0.2,0.1l-0.9-0.3c-1.6-0.4-3.2-0.8-4.8-1
	c-1-0.2-2-0.3-3.1-0.3c-0.6,0-1.2-0.1-1.9-0.1C88,106.7,88.3,106.3,88.6,106 M82,99.2h1.8c-0.4,1.4-1.7,2.5-3.2,2.5H79v-0.4
	C79.5,100.1,80.7,99.3,82,99.2 M80.8,94.7c-0.1,0.3-0.4,0.5-0.7,0.6l0,0c-0.5,0.2-1.1-0.1-1.3-0.6c0-0.1-0.1-0.2-0.1-0.4v-1.8
	c0.4-0.1,0.8-0.2,1.1-0.3l0.9,1.5C81,94,81,94.4,80.8,94.7 M84.2,93L84.2,93c-0.4,0.4-1,0.4-1.4,0.1c-0.1-0.1-0.2-0.2-0.2-0.3
	l-0.9-1.5c0.3-0.2,0.6-0.5,0.8-0.8l1.5,0.9c0.5,0.2,0.7,0.8,0.5,1.3C84.3,92.8,84.3,92.9,84.2,93 M86.4,89.1L86.4,89.1
	c-0.1,0.3-0.3,0.6-0.6,0.7c-0.3,0.1-0.6,0.1-0.9,0l-1.5-0.9c0.1-0.4,0.2-0.7,0.3-1.1h1.7c0.6,0,1,0.4,1,0.9
	C86.5,88.9,86.4,89,86.4,89.1 M84.8,83.9L84.8,83.9c0.3-0.2,0.6-0.2,0.9-0.1c0.3,0.1,0.5,0.4,0.6,0.7l0,0c0.2,0.5-0.1,1.1-0.6,1.3
	c-0.1,0-0.2,0.1-0.4,0.1h-1.7c-0.1-0.4-0.2-0.7-0.3-1.1L84.8,83.9L84.8,83.9z M82.5,80.9c0.2-0.5,0.8-0.7,1.3-0.4
	c0.1,0.1,0.2,0.1,0.3,0.2l0,0c0.2,0.2,0.3,0.6,0.3,0.9c0,0.3-0.2,0.6-0.5,0.8l-1.5,0.9c-0.2-0.3-0.5-0.6-0.8-0.8L82.5,80.9z
	 M78.9,79.4c0-0.3,0.1-0.6,0.4-0.8c0.3-0.2,0.6-0.3,0.9-0.2l0,0c0.3,0.1,0.6,0.3,0.7,0.6c0.1,0.3,0.1,0.6-0.1,0.9L80,81.4
	c-0.4-0.1-0.7-0.2-1.1-0.3V79.4z M75,79c0.1-0.3,0.4-0.5,0.7-0.6l0,0c0.3-0.1,0.7,0,0.9,0.2c0.3,0.2,0.4,0.5,0.4,0.8v1.7
	c-0.4,0.1-0.7,0.2-1.1,0.3L75,79.9C74.9,79.6,74.9,79.3,75,79 M71.8,80.7L71.8,80.7c0.2-0.2,0.6-0.3,0.9-0.3c0.3,0,0.6,0.2,0.8,0.5
	l0.9,1.5c-0.3,0.2-0.6,0.5-0.8,0.8L72,82.3c-0.3-0.2-0.5-0.4-0.5-0.8C71.4,81.2,71.5,80.9,71.8,80.7 M69.5,84.6L69.5,84.6
	c0.1-0.3,0.3-0.6,0.6-0.7c0.3-0.1,0.6-0.1,0.9,0.1l1.5,0.9c-0.1,0.4-0.2,0.7-0.3,1.1h-1.8c-0.6,0-1-0.4-1.1-0.9
	C69.5,84.8,69.5,84.7,69.5,84.6 M71,89.7c-0.3,0.2-0.6,0.2-0.9,0.1c-0.3-0.1-0.5-0.4-0.6-0.7l0,0c-0.2-0.5,0.1-1.1,0.6-1.3
	c0.1,0,0.2-0.1,0.4-0.1h1.8c0.1,0.4,0.2,0.8,0.3,1.1L71,89.7L71,89.7z M73.4,92.8c-0.2,0.5-0.8,0.7-1.3,0.4
	c-0.1-0.1-0.2-0.1-0.3-0.2l0,0c-0.4-0.4-0.5-1-0.1-1.4c0.1-0.1,0.2-0.2,0.4-0.3l1.5-0.9c0.2,0.3,0.5,0.6,0.8,0.8L73.4,92.8z
	 M74,86.8c0-2.2,1.7-3.9,3.9-3.9s3.9,1.7,3.9,3.9c0,2.2-1.7,3.9-3.9,3.9C75.7,90.7,74,89,74,86.8 M76.6,95.1
	c-0.3,0.2-0.6,0.3-0.9,0.2l0,0c-0.3-0.1-0.6-0.3-0.7-0.6c-0.1-0.3-0.1-0.6,0.1-0.9l0.9-1.5c0.4,0.1,0.7,0.2,1.1,0.3v1.8
	C77,94.6,76.9,94.9,76.6,95.1 M75.2,101.7c-1.5,0-2.8-1-3.2-2.5h1.8c1.4,0,2.7,0.9,3.1,2.3v0.2L75.2,101.7z M67.7,113.5
	c3.5-1.7,7.2-2.9,11.1-3.4c0.9-0.1,1.9-0.2,2.8-0.3h0.3c0.8,0,2.5-0.1,3.6-0.1h2.2c-5.8,1.5-11.9,4-15.4,6.5
	c-0.5,0.4-1.1,0.8-1.5,1.3l-0.2,0.2c-1.8-1-3.7-1.9-5.6-2.6C65.8,114.5,66.8,114,67.7,113.5"/>
<path class="st0" d="M55.4,208.2l-1.1,1.4c-1.1-0.4-2.1-0.9-3.1-1.6l1.6-2.1l1-1.3c-0.2-0.1-1.1-0.9-1.3-1c-3.3-2.7-10-6.5-14.8-7.1
	l0,0c-0.6-0.1-3-0.3-3.6-0.4l-0.1,2.7l-0.1,1v1.7l0.1-0.1c0.8,0.1,1.5,0.2,2.3,0.4c4.8,0.9,9.2,3.2,12.6,6.6
	c0.1,0.1,0.5,0.5,0.5,0.5c1.3,1.1,2.9,1.9,4.6,2.3c-0.2,1.4-0.9,2.7-2,3.7c-0.3-0.4-0.7-0.8-1.2-1.1c-1.2-0.8-2.7-1.2-4.1-1
	c-1.2,0-2.4-0.2-3.6-0.6c-1.5-0.7-2.8-1.7-3.9-3c-0.6-0.9-1.2-1.7-2-2.4c-1-0.7-2.1-1.2-3.3-1.2v1.6c0.8,0,1.6,0.3,2.2,0.7
	c0.9,0.9,1.7,2,2.4,3.1c1,0.9,2.1,1.7,3.2,2.4c1.6,0.6,3.3,1,5.1,1l0,0H47l0,0c0.9-0.1,1.9,0.1,2.7,0.5c0.4,0.3,0.7,0.6,1,1h-0.1
	l0.9,1.4l0.3-0.1l0,0l0,0l0.2-0.2c0.3-0.2,0.7-0.4,1-0.7l0-0.1c1.3-1.3,2.2-2.9,2.6-4.7l0.1-0.5c0-0.2,0.1-1.1,0.1-1.1
	c-0.3,0-0.6-0.1-0.9-0.1l0.8-1l0.7-0.9l0.8-1l-3.9-0.7L55.4,208.2z M36.8,200.3c-0.6-0.1-1.1-0.2-1.7-0.3l1.6-2.1l0.8,0.1
	c0.7,0.1,1.4,0.3,2.2,0.5l-1.7,2.1C37.6,200.5,37.2,200.4,36.8,200.3 M39.4,200.9l1.6-2.1c1.2,0.4,2.4,1,3.6,1.5l-1.6,1.9
	C41.8,201.8,40.6,201.3,39.4,200.9 M44.2,202.9l1.5-1.9c0.8,0.4,1.6,0.9,2.4,1.4l-1.6,2C45.8,203.9,45,203.4,44.2,202.9 M47.6,205.1
	l1.6-2c0.9,0.6,1.7,1.2,2.4,1.7l-1.7,2.2C49.2,206.4,48.4,205.7,47.6,205.1"/>
<path class="st0" d="M50.4,184.9c3.1,0.5,6,1.9,8.3,3.9l1.1-2.1c-2.3-2.2-5.2-3.7-8.4-4.1L50.4,184.9z"/>
<path class="st0" d="M45.9,193c3.1,0.5,6,2,8.4,4.1l1.1-2.1c-1.8-1.5-3.9-3.6-8.3-4.2L45.9,193z"/>
<path class="st0" d="M48.2,188.8c3.1,0.5,6,2,8.4,4.1l1.1-2.1c-2.3-2.2-5.2-3.6-8.4-4L48.2,188.8z"/>
<path class="st0" d="M44.6,184.2c-1.6-1.2-3.3-2.2-5.2-2.9l0.1-0.1c0.2-0.2,0.9-1.1,0.6-1.3s-0.9,0-1.3,0.3c-0.1-0.4-0.2-0.9-0.5-1
	s-0.7,1-0.7,1.3v0.1c-1.2-0.4-2.4-0.7-3.6-0.9l-0.1,1.3v1.1c3.5,0.6,6.8,2,9.6,4.1L44.6,184.2z"/>
<path class="st0" d="M34,187.1c0.1,0,0.2,0,0.3,0c2.5,0.8,4.8,2,6.8,3.6l1.1-2.1c-2.4-1.8-5.2-3.2-8.2-4
	C34,185.5,33.9,186.3,34,187.1"/>
<path class="st0" d="M47.3,179.4l-0.4-0.2c-0.4-0.2-0.9-0.5-1.3-0.7c0.2,0,0.5-0.2,0.6-0.4c0.2-0.2,0.9-1.1,0.6-1.3s-0.9,0-1.3,0.3
	c-0.1-0.4-0.2-0.9-0.5-1s-0.7,0.9-0.7,1.3c0,0.2,0,0.3,0,0.5c-2.3-1-4.6-1.7-7-2.3c0.2-0.1,0.3-0.3,0.3-0.6c0.1-0.3,0.3-1.4-0.1-1.4
	s-0.8,0.5-1.1,1c-0.2-0.5-0.7-1-1.1-1s-0.2,1.1-0.1,1.4l0.1,0.2l-1.5-0.2v2.4c4.3,0.7,8.4,2.2,12.2,4.3L47.3,179.4z"/>
<path class="st0" d="M50.4,217.3c-0.4-0.5-0.9-0.9-1.4-1.3c-1.2-0.8-2.7-1.2-4.1-1c-1.2,0-2.4-0.2-3.6-0.6c-1.5-0.7-2.9-1.7-3.9-3
	c-0.6-0.9-1.2-1.7-2-2.4c-0.5-0.4-1-0.6-1.5-0.8v1.6l0.4,0.2c0.9,0.9,1.7,2,2.4,3.1c1,0.9,2.1,1.8,3.3,2.4c1.6,0.6,3.3,1,5.1,1l0,0
	h0.2l0,0c0.9-0.1,1.9,0.1,2.7,0.5c0.4,0.3,0.7,0.6,1,1h-0.1l0.9,1.4l0.3-0.1c0.4-0.3,0.9-0.5,1.3-0.8l-0.2-0.2
	C50.9,218,50.6,217.6,50.4,217.3"/>
<path class="st0" d="M64.8,153c0-0.6-0.5-1.1-1.1-1.1s-1.1,0.5-1.1,1.1s0.5,1.1,1.1,1.1C64.3,154.1,64.8,153.6,64.8,153L64.8,153"/>
<path class="st0" d="M60.5,152.7c0.6,0,1.1-0.5,1.1-1.1c0-0.6-0.5-1.1-1.1-1.1s-1.1,0.5-1.1,1.1S59.9,152.7,60.5,152.7L60.5,152.7"
	/>
<rect x="75.8" y="149.5" transform="matrix(0.4785 -0.8781 0.8781 0.4785 -90.8247 147.7174)" class="st0" width="6.3" height="1.6"/>
<rect x="79.3" y="151.4" transform="matrix(0.4785 -0.8781 0.8781 0.4785 -90.6742 151.7387)" class="st0" width="6.3" height="1.6"/>
<rect x="82.7" y="153.3" transform="matrix(0.4787 -0.878 0.878 0.4787 -90.5347 155.7302)" class="st0" width="6.3" height="1.6"/>
<path class="st0" d="M102.4,167.5c-0.8-0.3-1.7-0.4-2.6-0.2c-1.5,0.3-3.1,0.6-4.6,1.1c-1,0.3-2,0.6-3,0.9c-0.9,0.3-1.9,0.4-2.9,0.4
	h-0.7h-0.3h-0.1h-0.1c-0.5-0.1-1-0.2-1.4-0.3c-0.9-0.3-1.8-0.6-2.6-1.1c-0.9-0.5-1.7-1-2.5-1.6c-0.8-0.6-1.7-1.2-2.6-1.7
	c-1-0.5-2.1-0.7-3.2-0.8c-1.1,0-2.2,0.1-3.2,0.4c-0.9,0.2-1.7,0.5-2.6,0.7l-1.1,0.2l-0.5,0.1h-0.2h-0.1c-0.7,0.1-1.3,0.1-2,0.1
	c-0.3,0-0.7,0-1-0.1l0,0h-0.2l-0.6-0.1c-0.8-0.2-1.5-0.4-2.3-0.7l-0.2-0.1l-0.3-0.1l-0.6-0.3c-0.4-0.2-0.8-0.4-1.3-0.7l-0.8-0.5l0,0
	l0,0l-0.5-0.3c-3.5-2.8-7.5-5-11.8-6.4c-3.4-1.1-7-1.7-10.6-2c-0.7,0-1.4-0.1-2.1-0.1v2l1.5,0.1c0.7,0,1.4,0.1,2.1,0.2l1.2,0.1H39
	h0.1l0.7,0.1c1.8,0.3,3.6,0.7,5.3,1.2c1,0.3,1.9,0.6,2.9,1l0.7,0.3l0.3,0.1h0l0.3,0.1c0.5,0.2,1,0.4,1.4,0.7
	c1.1,0.5,2.2,1.1,3.2,1.8c1.1,0.7,2.1,1.5,3.1,2.3l0,0l0,0c-0.8,0.7-1.5,1.4-2.3,2.1c-0.9-0.5-1.7-0.9-2.7-1.3
	c0.3,0.1,0.6-0.1,0.8-0.3s0.9-1.1,0.6-1.3s-0.9,0-1.3,0.3c-0.1-0.4-0.2-0.9-0.5-1S51,164,51,164.4c0,0.2,0,0.4,0,0.6
	c-2.4-1-4.8-1.8-7.3-2.3c0.1-0.1,0.2-0.2,0.3-0.3c0.2-0.3,0.7-1.3,0.3-1.4s-0.8,0.2-1.2,0.6c-0.1-0.4-0.4-0.9-0.7-0.9
	s-0.5,1.1-0.5,1.4c0,0.1,0,0.3,0.1,0.4c-1.6-0.3-3.3-0.5-4.9-0.6c0.1-0.1,0.1-0.2,0.2-0.4c0.1-0.3,0.3-1.4-0.1-1.4s-0.8,0.5-1.1,1
	c-0.2-0.5-0.7-1-1.1-1s-0.2,1.1-0.1,1.4c0,0.1,0.1,0.2,0.1,0.2h0h-1v2.9h0.3H35c6.3,0.2,12.4,1.8,18,4.7c-0.6,0.8-1.1,1.7-1.6,2.6
	c-0.9-0.5-1.8-0.9-2.8-1.3c0.1-0.1,0.2-0.1,0.3-0.2c0.2-0.2,0.9-1.1,0.6-1.3s-0.9,0-1.3,0.3c-0.1-0.4-0.2-0.9-0.5-1
	s-0.7,0.9-0.7,1.3c0,0.1,0,0.2,0,0.3c-1.6-0.5-3.1-1-4.8-1.3l0-0.1c0.2-0.3,0.7-1.3,0.3-1.4s-0.8,0.2-1.2,0.6
	c-0.1-0.4-0.4-0.9-0.7-0.9s-0.5,1.1-0.5,1.4v0.1c-1.1-0.2-2.2-0.3-3.3-0.4c0.1-0.1,0.1-0.2,0.1-0.3c0.1-0.3,0.3-1.4-0.1-1.4
	s-0.8,0.5-1.1,1c-0.2-0.5-0.7-1-1.1-1s-0.2,1.1-0.1,1.4l0.1,0.2H34v2.5h0.9c9.6,0.3,18.3,4.2,23.3,10c-2.9-1.3-6.5-2.5-6.7-2.6
	l-0.9-0.3l-9.3,16.3c-2.1-1.7-4.6-2.8-7.3-3.2c-0.1,0-0.1,0.1-0.1,0.3v1.2c0,0.3,0,0.5,0,0.6c2.5,0.5,4.8,1.7,6.6,3.5l0,0l1.2,0.5
	c0,0,5,2,6.5,2.7s5.5,3.6,5.6,3.7l1.1,0.7l9.9-18.6l-0.7-0.6c-0.3-0.2-0.5-0.5-0.8-0.7L63,183c-1.3-2.7-3.2-5.1-5.5-7.1
	c1-1.6,2.2-3,3.6-4.3v-3.1c-2.1,1.6-4,3.6-5.6,5.8c-0.6-0.4-1.2-0.9-1.9-1.3c0.1-0.1,0.2-0.2,0.2-0.3c0.4-0.8,0.8-1.6,1.3-2.3
	c0.6-0.8,1.2-1.5,1.9-2.2c0.7-0.7,1.5-1.5,2.3-2.1c2.3,1.3,4.8,1.9,7.4,1.9c1.5-0.1,2.9-0.3,4.4-0.7c1-0.2,1.9-0.6,2.9-0.8l0.3-0.1
	h0.1h0.2c0.2,0,0.5,0,0.7,0c0.5,0,0.9,0,1.3,0.1c1.9,0.4,3.4,1.8,5.1,2.9c1.7,1.1,3.6,1.8,5.6,2.2c1,0.2,2.1,0.2,3.1,0.1
	c1.1-0.1,2.1-0.4,3.2-0.7c0.9-0.3,1.8-0.5,2.7-0.8c0.7-0.2,1.4-0.4,2.1-0.6c0.4-0.1,0.8-0.2,1.2-0.2l0,0h0.1h0.3c0.2,0,0.4,0,0.6,0
	h0.3h0.1c0.2,0,0.4,0.1,0.6,0.2h0.1l0,0l0.2,0.1l0.4,0.2l0.3,0.2c1.2,0,2.3-0.1,3.4-0.2c-0.7-0.4-1.3-0.9-2-1.3
	c-0.6-0.4-1.3-0.8-1.9-1.1 M51.7,165.3L51.7,165.3c0.1,0,0.2,0.1,0.2,0.1L51.7,165.3 M59.7,182.8c1.2,0.8,2.3,1.7,2.9,2.2l-8.3,15.9
	c-1.4-0.9-4.4-2.9-5.5-3.5s-4.7-2-6.3-2.7l8.8-15.6c1.3,0.5,4,1.4,6,2.3C58.2,181.8,59,182.3,59.7,182.8"/>
<path class="st0" d="M118,165.1c-0.7,0.2-1.4,0.4-2.1,0.6c-0.5,0.1-1,0.3-1.4,0.3h-0.5c-0.3,0-0.5,0-0.8,0c0.2,0-0.2,0-0.3,0
	l-0.5-0.1c-0.4-0.1-0.8-0.2-1.2-0.3c-0.7-0.2-1.3-0.4-2-0.6l-1-0.4l-0.2-0.1h-0.1h-0.1l-0.5-0.2l-0.9-0.4l1.2-18.7
	c-0.5,0.1-1.1,0.2-1.7,0.2h-0.3l-0.5,8.6l-1.8-0.4l2.1-8.2c-0.7-0.1-1.3-0.2-1.9-0.5l-2,8l-1.8-0.4l3.6-7.8
	c-0.6-0.3-1.2-0.7-1.6-1.1l-9.2,20c-0.2,0.4-0.3,0.7-0.5,1l0,0l-0.6,0.1c-0.4,0-0.8,0-1.2,0h-0.5c-0.2,0-0.4-0.1-0.7-0.1
	c-0.9-0.2-1.7-0.4-2.5-0.8h-0.1h-0.1l-0.2-0.1l-0.6-0.3c-0.4-0.2-0.8-0.4-1.2-0.6c-0.8-0.5-1.5-1-2.2-1.5c-1.5-1.1-3.3-1.8-5.2-1.9
	c-1.8-0.1-3.5,0.6-5.3,1c-0.6,0.1-1.2,0.3-1.9,0.4l-0.4,0.1l0,0h-0.2c-0.3,0-0.6,0.1-0.9,0.1c-0.7,0-1.3,0-2-0.1l0,0l-0.3-0.1l0,0
	c2.3-2.7,3.7-6,4.1-9.5l0.1-0.8c0-0.3,0-0.7,0-1l0,0v-0.8c-0.6,0-1.2,0-1.8,0c-1.2-0.1-2.4-0.5-3.4-0.9L92,133l-2.3,4.3
	c-0.2,0.4-0.1,0.9,0.3,1.1l0.3,0.2c1,0.5,1.4,1.7,0.8,2.7c-0.5,1-1.7,1.4-2.7,0.8c-1-0.5-1.4-1.7-0.8-2.7c0,0,0,0,0-0.1l-1.4-0.8
	c-0.5,1-0.6,2.1-0.1,3.1l-7.7,1.2l-0.5-0.3c-0.4-0.2-0.9-0.1-1.1,0.3l0,0l-5.3,9.7c-0.2,0.4-0.1,0.9,0.3,1.1l0,0l14.9,8.1
	c0.4,0.2,0.9,0.1,1.1-0.3l0,0l5.3-9.7c0.2-0.4,0.1-0.9-0.3-1.1l0,0l-1.3-0.7l-2.1-6.2c1.9-0.1,3.5-1.7,3.4-3.6
	c0-1.1-0.6-2.2-1.5-2.8l3.3-5.9h0.1l-0.9-3.3l-34.7,12.3l0-0.1l1.3-2.3l-0.6-0.3c-0.5-0.4-1-0.7-1.5-1.1c-1.5-1-3.2-1.9-4.9-2.6
	l1.4-2.5l1.2-2.3l1.5-2.5l-8.6-0.6l4.7,4.2l-1.6,3c-4.4-1.7-9-2.5-13.7-2.6h-0.1c-1,0-1.9,0-2.9,0.1l-1.4,2.7v0.1v6.1
	c1.7-0.1,3.4-0.1,5.2,0c7.8,0.6,15.3,3.5,20.3,8c0.2,0.2,0.9,0.7,0.9,0.7c2.2,1.5,4.7,2.4,7.3,2.7c-0.6,4.4-1.6,6.1-4.2,8.9
	c-0.4-0.1-0.7-0.3-1.2-0.5c-0.9-0.5-1.8-1-2.6-1.5c-3.5-2.8-7.5-5-11.8-6.4c-3.4-1.1-6.9-1.7-10.5-1.9c-1.1-0.1-2.3-0.1-3.4-0.1v2
	c0.9,0,1.9,0,2.8,0.1c0.7,0,1.4,0.1,2.1,0.2l1.2,0.1h0.3h0.1L41,152c1.8,0.3,3.6,0.7,5.3,1.2c1,0.3,1.9,0.6,2.9,1l0.7,0.3l0.3,0.1
	h0.1l0.3,0.1c0.5,0.2,1,0.4,1.4,0.7c1.1,0.5,2.2,1.1,3.2,1.8c1.1,0.7,2.1,1.4,3.1,2.3l0,0l0.2,0.1c2.5,1.8,5.5,2.9,8.6,3.2
	c1.3,0,2.5-0.1,3.8-0.3c0.7-0.1,1.3-0.3,2-0.4c0.9-0.2,1.8-0.5,2.7-0.7c1.6-0.3,3.2,0.1,4.6,0.9c0.7,0.4,1.4,1,2.1,1.4
	c0.7,0.5,1.5,1,2.3,1.4c1.6,0.8,3.4,1.3,5.2,1.5c1.6,0.1,3.1-0.1,4.6-0.6l0.9-0.3c0.8-0.2,1.6-0.4,2.4-0.7l0.5-0.1l0.2-0.1
	c0.4-0.1,0.7-0.2,1.1-0.3l0.4-0.1h0.1h0.3h0.2c0.3,0,0.7,0,1,0l0.7,0.1h0.1l0.4,0.1c0.5,0.1,1.1,0.3,1.6,0.4l0.1,0.1l1,0.4l0.5,0.2
	l0.2,0.1l0.2,0.1h0.1c0.6,0.3,1.2,0.5,1.8,0.8c1.3,0.5,2.6,0.9,4,1.2c1.1,0.2,2.3,0.2,3.4,0c0.6-0.1,1.1-0.3,1.7-0.5l1.1-0.3
	l0.4-0.1h0.8h0.2c0.3,0.1,0.7,0.2,1,0.3c0.9-0.2,1.7-0.5,2.6-0.7c-0.9-0.8-2-1.4-3.3-1.6C119.3,164.9,118.7,164.9,118,165.1
	 M87.3,143.2l2.1,5.5l-8.5-4.6L87.3,143.2z M91.4,151.6l-4.5,8.4l-13.5-7.3l4.5-8.3L91.4,151.6z M91,131.2l-10.2,5.5l-3-0.9
	L91,131.2z M75.3,137.2l3.1,0.9l-4.1,2.2L75.3,137.2z M73.1,137.6l-1.1,3.5l-4.4-1.5L73.1,137.6z M55.6,141.7l-0.3,0.1
	c-4.9-2.6-10.2-4.2-15.7-4.6c-1.5-0.1-3.1-0.1-4.6-0.1l2-3.8h1.3c6.7,0,13.3,1.9,18.9,5.5L55.6,141.7z M61.7,146.1
	c-0.7-0.4-1.1-0.6-1.1-0.6c-0.9-0.8-2-1.5-3-2.2l0.1-0.2l5.6-2L61.7,146.1z M65.4,141l4.8,1.6l-6.4,3.4L65.4,141z M99.1,162.8
	c-0.8,0.2-1.6,0.4-2.5,0.6s-1.4,0.4-2,0.6l4.4-9.6l2.1,0.5L99.1,162.8z M104.6,163.1c-1.1-0.4-2.3-0.6-3.4-0.6l1.8-7.1l2.1,0.5
	L104.6,163.1z"/>
<path class="st0" d="M138.5,114.4c0-0.1,0-0.1-0.1-0.2l-0.6-1.5c0.2-0.2,0.2-0.5,0.2-0.7c-0.1-0.3-0.3-0.6-0.6-0.7
	c-0.1,0-0.2-0.1-0.2-0.2c0-0.2-0.1-0.3-0.2-0.4c-0.4-0.5-0.9-0.9-1.3-1.3c-0.3-0.2-0.7-0.2-0.9,0c-0.1,0.1-0.2,0.2-0.2,0.4
	c0,0.2,0.1,0.4,0.2,0.5l0.3,0.3l0.8,0.9c0,0,0.1,0.1,0.1,0.1c-0.2,0.1-0.3,0.3-0.3,0.6c0,0.2,0.1,0.5,0.3,0.6
	c0.2,0.2,0.4,0.3,0.6,0.3c0.2,0.5,0.4,1,0.6,1.5c0,0.1,0.2,0.2,0.3,0.2h0.6h0.6L138.5,114.4z"/>
<path class="st0" d="M134.5,119.5c0.3,0.2,0.7,0.4,1,0.6c0-0.2,0-0.3,0.1-0.5c0.3-1,0.8-2,1.5-2.8l0.1-0.1h0.3l4.2,0.2h0.3l0.1,0.1
	c0.6,0.9,1,1.9,1.2,2.9c0.1,0.6,0.1,1.1,0,1.7l-0.1,0.4c0.6-0.1,1.3-0.2,1.9-0.3v-0.2c0-0.6,0-1.3-0.1-1.9c-0.2-1.3-0.7-2.5-1.5-3.6
	c-0.2-0.3-0.4-0.5-0.7-0.7c-0.3-0.2-0.7-0.3-1.1-0.3l-4.2-0.2c-0.4,0-0.8,0-1.1,0.2c-0.3,0.1-0.5,0.4-0.7,0.6
	c-0.8,1-1.4,2.1-1.8,3.3l0.1,0.1L134.5,119.5"/>
<polyline class="st0" points="134.5,127.6 134.5,127.6 134.5,127.6 134.5,127.6 "/>
</svg>
